<?xml version="1.0" encoding="UTF-8"?>
<svg width="38px" height="46px" viewBox="0 0 38 46" version="1.1" xmlns="http://www.w3.org/2000/svg" xmlns:xlink="http://www.w3.org/1999/xlink">
    <title>C3F0F240-9B55-4925-8410-F38DC17C113C</title>
    <g id="05.-Partner-Dashboard💻" stroke="none" strokeWidth="1" fill="none" fillRule="evenodd">
        <g id="6001_Job_Own_Detail_PDF_Draft" transform="translate(-552.000000, -894.000000)">
            <g id="Documents" transform="translate(536.000000, 825.000000)">
                <g id="1" transform="translate(0.000000, 64.000000)">
                    <g id="Folder/Pdf" transform="translate(16.000000, 5.000000)">
                        <path d="M4,0 L27,0 L27,0 L38,11 L38,42 C38,44.209139 36.209139,46 34,46 L4,46 C1.790861,46 2.705415e-16,44.209139 0,42 L0,4 C-2.705415e-16,1.790861 1.790861,4.05812251e-16 4,0 Z" id="Rectangle" fill="#FCFCFC"></path>
                        <path d="M26.5857864,1 L4,1 C3.17157288,1 2.42157288,1.33578644 1.87867966,1.87867966 C1.33578644,2.42157288 1,3.17157288 1,4 L1,42 C1,42.8284271 1.33578644,43.5784271 1.87867966,44.1213203 C2.42157288,44.6642136 3.17157288,45 4,45 L34,45 C34.8284271,45 35.5784271,44.6642136 36.1213203,44.1213203 C36.6642136,43.5784271 37,42.8284271 37,42 L37,11.4142136 L26.5857864,1 Z" id="Rectangle-Copy-10" stroke="#C7C8CA" stroke-width="2"></path>
                        <path d="" id="Path-2" stroke="#C7C8CA" stroke-width="2"></path>
                        <text id="pdf" font-family="Montserrat-SemiBold, Montserrat" font-size="12" font-weight="500" line-spacing="16" fill="#E73F34">
                            <tspan x="8.048" y="34">pdf</tspan>
                        </text>
                    </g>
                </g>
            </g>
        </g>
    </g>
</svg>